<svg xmlns="http://www.w3.org/2000/svg" xmlns:xlink="http://www.w3.org/1999/xlink" width="500" zoomAndPan="magnify" viewBox="0 0 375 374.999991" height="500" preserveAspectRatio="xMidYMid meet" version="1.0"><defs><clipPath id="94c998295a"><path d="M 2 125.15625 L 373 125.15625 L 373 239 L 2 239 Z M 2 125.15625 " clip-rule="nonzero"/></clipPath></defs><g clip-path="url(#94c998295a)"><path fill="#000000" d="M 372.125 147.335938 C 372.125 147.335938 359.464844 196.203125 323.847656 177.277344 C 297.195312 163.15625 274.683594 126.042969 239.886719 125.601562 C 207.304688 125.15625 189.535156 153.027344 187.464844 156.503906 C 185.390625 153.027344 167.621094 125.15625 135.039062 125.601562 C 100.242188 126.042969 77.730469 163.15625 51.078125 177.277344 C 15.460938 196.203125 2.800781 147.335938 2.800781 147.335938 C 0.652344 169.515625 4.503906 225.257812 71.066406 236.347656 C 150.367188 249.65625 184.5 203.152344 187.464844 198.867188 C 190.425781 203.152344 224.558594 249.582031 303.859375 236.347656 C 370.421875 225.257812 374.347656 169.441406 372.125 147.335938 Z M 372.125 147.335938 " fill-opacity="1" fill-rule="nonzero"/></g></svg>